<?xml version="1.0" encoding="utf-8"?>
<!-- Svg Vector Icons : http://www.onlinewebfonts.com/icon -->
<!DOCTYPE svg PUBLIC "-//W3C//DTD SVG 1.1//EN" "http://www.w3.org/Graphics/SVG/1.1/DTD/svg11.dtd">
<svg version="1.1" xmlns="http://www.w3.org/2000/svg" xmlns:xlink="http://www.w3.org/1999/xlink" x="0px" y="0px" viewBox="0 0 256 256" enable-background="new 0 0 256 256" xml:space="preserve">
<metadata> Svg Vector Icons : http://www.onlinewebfonts.com/icon </metadata>
<g><g><g><path fill="#ffffff" d="M43.4,60c-0.7,0.2-1.4,0.8-1.7,1.1c-0.3,0.4-6.4,13.7-13.5,29.6c-7.1,15.8-13.5,30-14.4,31.4c-0.8,1.5-2,3.6-2.6,4.9c-0.8,1.4-1.3,3.2-1.3,4.8c0,3.1,11.5,49.8,13,53c1.3,2.6,5.4,6.9,8.4,8.7c4.9,2.9,6.4,3,38.4,2.8l29.5-0.2l3-1.5c3.6-1.7,7.7-5.9,9.2-9.3c0.8-1.8,1.5-6.8,2.9-22c1-10.8,2.2-20.1,2.5-20.8c1.2-2.2,5.2-3.5,10.9-3.5c5.7,0,9.7,1.3,10.9,3.5c0.3,0.7,1.4,10,2.4,20.8c1.5,15.3,2.1,20.1,2.9,22c1.5,3.4,5.7,7.6,9.2,9.4l3,1.5h31h31l3.2-1.3c3.8-1.6,9.4-6.6,11.1-10c1.5-3,13.2-49.9,13.2-52.8c-0.1-2.8-1-5.6-2.8-8c-0.7-1-7.4-15.4-14.8-32S214.5,61.5,214,61c-0.5-0.5-1.8-1.1-2.9-1.3c-2-0.3-2.1-0.2-9.9,7.5c-10.6,10.4-10.9,11.3-7.3,20.1c3.9,9.5,6.5,8.9,11.7-3.1c1.7-4,3.3-7,3.5-6.8c0.2,0.2,0.7,1.4,1.1,2.6c0.4,1.2,4,10.1,7.8,19.7c6.8,17.2,7,17.6,8.4,17.4c0.9-0.1,1.5-0.5,1.6-1.3c0.2-1.5-15.4-41.1-16.9-42.6c-2.7-2.8-4.4-1.2-8.7,8.3l-3.4,7.6l-1.6-3.5c-3-6.6-3.2-6,5.5-14.8c4.9-4.9,7.9-7.5,8.2-7.2c0.5,0.5,25.1,55.2,25.1,55.8c0,0.1-18.9,0.2-42,0.1c-47.2-0.2-45.6-0.3-50.1,3.8c-1.4,1.3-3,3.3-3.7,4.5c-0.6,1.2-1.2,2.3-1.3,2.4c-0.1,0.1-1.5-0.2-3.3-0.7c-4.1-1-11.6-1-15.7,0c-1.8,0.5-3.3,0.8-3.3,0.7c-0.1-0.1-0.7-1.1-1.3-2.4c-0.6-1.2-2.1-3.1-3.4-4.2c-4.6-4.1-1.3-3.9-49.3-3.9c-23.7,0-43.1-0.1-43.1-0.2c0-0.5,24.6-55.3,25.1-55.8c0.3-0.3,3.3,2.3,8,7c8.5,8.6,8.6,8.8,5.8,15.1L57,89.1l-3.4-7.6c-4.3-9.5-6-11.1-8.7-8.3c-1.4,1.5-17.1,41.1-16.9,42.6c0.2,1.6,2.3,1.7,3.3,0.2c0.4-0.7,4-9.6,8-19.7s7.4-18.7,7.6-18.9c0.2-0.2,1.8,2.8,3.5,6.8c3,6.9,4.9,9.6,6.6,9.6c1.5,0,3.5-2.6,5.3-6.8c2-4.8,2.2-8.2,0.9-10.9c-0.5-0.9-4.3-5-8.4-9.1C47,59.3,46.3,58.8,43.4,60z M107.8,124.8c2.6,1.3,4.7,4.1,5.3,7c0.4,2.3-3.9,48.3-4.8,51.4c-0.9,3-5.4,7.6-8.3,8.4c-1.5,0.4-12.1,0.6-31.9,0.6c-25.7,0-30-0.1-32.2-0.9c-3-1-7.7-5-9-7.8c-0.5-1.1-3.8-13.1-7.1-26.7c-6.8-27.4-6.9-27.6-3.6-30.6c1-0.9,2.2-1.8,2.8-2.1c0.6-0.3,20.3-0.5,43.7-0.5C105.1,123.7,105.4,123.7,107.8,124.8z M236.9,124.1c0.7,0.3,2,1.3,3,2.1c3.2,3,3.2,3.2-3.6,30.6c-3.4,13.6-6.6,25.6-7.1,26.7c-1.4,2.8-6,6.7-9,7.8c-2.2,0.8-6.5,0.9-32.7,0.9c-28.1,0-30.4-0.1-32.4-1c-2.9-1.3-6.6-5.4-7.3-8c-0.9-3.3-5.1-49.2-4.7-51.3c0.5-2.9,2.6-5.7,5.3-7c2.3-1.1,2.5-1.1,44.9-1.1C217.6,123.7,236.2,123.9,236.9,124.1z M135.1,132.9c2.3,0.7,2.9,1.3,3.4,3.4l0.3,1.5l-2.6-1.1c-3.9-1.7-12.9-1.7-16.7,0l-2.6,1.2l0.4-1.5c0.5-2.1,1.2-2.8,3.2-3.4C122.9,132.2,132.7,132.2,135.1,132.9z"/><path fill="#ffffff" d="M20.5,126.4c-0.9,0.3-2.1,0.9-2.6,1.5c-2,2.2-1.7,4.3,4.2,28.4c3.2,12.8,6.1,24.1,6.5,25.1c1,2.4,4.1,5.5,7,7c2.3,1.2,2.4,1.2,31.2,1.4c19.8,0.1,29.7-0.1,31.2-0.4c2.5-0.7,6.1-3.7,7.5-6.1c0.8-1.6,5-42,5.1-48.5c0-3.4-1.4-6.2-3.8-7.6c-1.8-1.1-2.8-1.1-43.2-1.2C40.1,125.9,21.5,126.1,20.5,126.4z M105.8,131.9c1.1,1.4,1.1,1.5-1.2,25.3c-1.6,17.2-2.5,24.3-3.1,25.3c-2,3.3-1.1,3.2-33.3,3.2c-24.3,0-29.7-0.1-30.9-0.8c-1.6-0.9-4.1-3.3-4.8-4.9c-0.3-0.6-3.2-11.7-6.4-24.6c-4.8-19.3-5.7-23.7-5.2-24.4c0.6-0.7,5.8-0.8,42.3-0.7l41.6,0.2L105.8,131.9z"/><path fill="#ffffff" d="M78.3,136.3c-2.2,3.6-23.7,43.6-23.7,44.2c0,1.2,1.8,2,2.9,1.2c0.5-0.4,6.3-10.5,12.8-22.6c9.6-17.7,11.9-22.2,11.4-23C81,134.7,79.2,134.8,78.3,136.3z"/><path fill="#ffffff" d="M76.6,159.9c-3.7,7.2-6.3,12.8-6.1,13.4c0.1,0.8,0.6,1.2,1.5,1.4c1.3,0.2,1.8-0.7,7.8-12.3c6.7-13,7.2-14.7,4.5-14.7C83.1,147.6,82.2,149.2,76.6,159.9z"/><path fill="#ffffff" d="M149.8,127c-3,1.5-4.3,4-4.3,7.8c0,1.5,1,12.7,2.1,24.8c1.5,15.4,2.3,22.5,2.9,23.7c1.2,2.5,4.9,5.5,7.4,6.2c1.5,0.4,11.5,0.5,30.9,0.4c27.9-0.2,28.8-0.2,31.2-1.3c2.4-1.1,5.4-3.8,6.9-5.9c0.4-0.6,3.4-12,6.7-25.3c6.3-25.2,6.6-27.1,4.6-29.4c-0.5-0.5-1.8-1.2-2.9-1.6c-1.3-0.3-17.1-0.5-42.5-0.5h-40.6L149.8,127z M235.1,130.9c0.5,0.7-0.4,5.4-4.8,23c-3,12.2-5.7,23.1-6,24.3c-0.7,2.5-3.4,5.8-5.8,6.7c-1.4,0.6-7.7,0.8-30.9,0.8c-32.2,0-31.2,0.1-33.1-3.5c-0.6-1.2-1.5-8.3-3-24.7c-1.2-12.7-2.2-23.3-2.2-23.7c0-0.4,0.5-1.4,1.1-2.2l1.1-1.4H193C228.4,130.2,234.5,130.3,235.1,130.9z"/><path fill="#ffffff" d="M211,136.3c-2.2,3.5-23.7,43.6-23.7,44.2c0,1.2,1.8,2,2.9,1.2c0.5-0.4,6.3-10.5,12.8-22.6c9.6-17.7,11.9-22.2,11.4-23C213.7,134.7,211.9,134.8,211,136.3z"/><path fill="#ffffff" d="M209.3,159.9c-3.6,7-6.3,12.8-6.1,13.5c0.1,0.7,0.7,1.2,1.4,1.3c1.5,0.2,1.8-0.3,8.9-14.2c5.7-11.1,6.1-12.9,3.5-12.9C215.8,147.6,214.8,149.2,209.3,159.9z"/></g></g></g>
</svg>